<?xml version="1.0" standalone="no"?>
<!DOCTYPE svg PUBLIC "-//W3C//DTD SVG 20010904//EN"
 "http://www.w3.org/TR/2001/REC-SVG-20010904/DTD/svg10.dtd">
<svg version="1.0" xmlns="http://www.w3.org/2000/svg"
 width="512.000000pt" height="512.000000pt" viewBox="0 0 512.000000 512.000000"
 preserveAspectRatio="xMidYMid meet">

<g transform="translate(0.000000,512.000000) scale(0.100000,-0.100000)"
fill="#000000" stroke="none">
<path d="M1910 5105 c-324 -66 -584 -326 -651 -649 -17 -83 -19 -141 -19 -641
l0 -550 32 -65 c53 -105 120 -162 221 -185 l48 -11 29 -87 c17 -48 42 -111 56
-140 93 -183 264 -353 447 -443 l57 -28 -2 -164 -3 -164 -427 -129 c-235 -70
-455 -142 -490 -160 -204 -103 -356 -275 -429 -487 -10 -30 -64 -293 -119
-585 -55 -293 -102 -540 -104 -551 -3 -10 6 -28 19 -42 l25 -25 1965 5 c1530
3 1969 7 1980 16 8 7 15 25 15 41 0 31 -181 991 -205 1084 -8 33 -38 105 -65
161 -83 166 -209 293 -371 374 -49 25 -199 76 -411 140 -183 55 -373 112 -423
128 l-90 28 -3 126 -3 126 50 17 c68 22 159 83 205 136 52 61 82 124 161 339
37 102 76 209 87 238 l19 52 58 0 c32 0 78 7 104 16 64 22 140 92 174 162 l28
57 3 511 3 512 29 12 c43 18 97 82 110 131 30 110 -34 218 -147 248 -52 14
-110 2 -162 -32 -118 -78 -103 -277 24 -339 l45 -22 0 -358 c0 -333 -4 -383
-26 -347 -9 16 -105 59 -131 59 -21 0 -21 3 -25 198 l-3 197 -37 77 c-41 87
-97 152 -169 199 -58 37 -155 69 -209 69 -21 0 -41 4 -44 8 -3 5 -14 51 -26
103 -23 107 -50 144 -116 159 -21 5 -117 10 -211 10 l-173 0 0 228 c0 164 -3
231 -12 240 -18 18 -600 15 -688 -3z m1981 -574 c42 -42 41 -99 -2 -135 -82
-69 -194 18 -145 112 31 61 99 71 147 23z m-903 -13 c10 -13 32 -105 32 -133
0 -13 -33 -15 -205 -15 l-205 0 0 80 0 80 184 0 c135 0 186 -3 194 -12z m-488
-1003 c0 -737 0 -745 -20 -745 -33 0 -117 36 -162 69 -47 35 -73 39 -100 14
-28 -25 -22 -48 24 -88 52 -44 133 -83 204 -98 l54 -11 0 -163 0 -163 -35 0
c-20 0 -71 7 -113 16 -341 70 -607 323 -700 663 l-26 96 -1 430 c0 427 0 430
23 487 28 69 108 160 166 190 85 44 109 47 404 47 l282 1 0 -745z m756 725
c26 -10 26 -11 22 -89 -7 -118 -33 -162 -180 -307 -106 -104 -129 -122 -171
-132 -90 -23 -165 -92 -195 -181 -20 -58 -15 -150 12 -206 28 -61 99 -128 152
-145 58 -19 58 -20 26 -54 -46 -48 -66 -95 -72 -166 l-5 -65 -117 -3 -118 -3
0 500 0 499 133 4 c112 3 138 7 173 25 66 35 105 91 159 223 l50 122 52 -6
c28 -3 64 -11 79 -16z m173 -131 c58 -79 66 -122 66 -354 l0 -210 -65 -6 c-37
-3 -83 -15 -107 -27 l-42 -22 -11 34 c-18 57 -69 123 -115 152 l-43 28 98 103
c112 118 158 195 167 286 3 31 10 57 14 57 5 0 22 -18 38 -41z m-351 -510 c69
-34 112 -118 97 -191 -10 -45 -89 -126 -136 -138 -114 -31 -235 80 -215 199
12 79 96 151 175 151 19 0 54 -10 79 -21z m587 -100 c31 -13 50 -31 79 -73 22
-33 26 -50 26 -108 0 -40 -6 -80 -14 -96 -32 -61 -112 -112 -177 -112 -29 0
-31 2 -25 28 3 15 13 56 21 92 8 36 18 116 21 178 8 123 4 118 69 91z m-2155
-107 c0 -66 3 -153 6 -195 7 -76 7 -77 -17 -77 -66 0 -140 84 -147 165 -8 101
19 161 93 206 61 38 65 33 65 -99z m1976 -28 c-6 -65 -50 -261 -61 -272 -2 -3
-18 1 -36 7 -71 25 -148 3 -183 -51 -8 -13 -38 -86 -66 -163 -58 -156 -60
-192 -17 -248 14 -18 43 -41 66 -52 23 -10 41 -21 41 -24 0 -3 -13 -29 -30
-58 -43 -74 -139 -147 -222 -167 l-28 -6 0 319 c0 203 4 330 11 348 12 33 396
419 430 432 13 5 41 10 63 10 l39 1 -7 -76z m-106 -389 c0 -16 -100 -287 -110
-298 -13 -14 -70 21 -70 43 0 35 82 255 102 272 15 13 24 15 48 6 17 -5 30
-16 30 -23z m-702 -272 l3 -83 -31 0 -30 0 0 86 0 85 28 -3 c27 -3 27 -4 30
-85z m162 2 l0 -85 -30 0 -30 0 0 78 c0 43 3 82 7 85 3 4 17 7 30 7 22 0 23
-3 23 -85z m10 -285 l0 -90 -120 0 -120 0 0 90 0 90 120 0 120 0 0 -90z m-480
-186 c41 -7 87 -13 103 -14 l27 0 0 -322 c0 -177 -4 -318 -8 -312 -16 18 -239
339 -250 361 -13 24 -15 106 -5 231 l6 83 26 -6 c14 -4 60 -13 101 -21z m310
-279 c6 -273 7 -282 60 -384 12 -24 58 -81 102 -127 l82 -85 -65 -65 c-80 -82
-103 -94 -177 -94 l-59 0 -6 158 c-9 202 -9 672 0 780 6 82 6 83 32 80 l26 -3
5 -260z m208 111 c1 -89 7 -155 13 -163 6 -7 56 -27 110 -43 l99 -31 0 -140 0
-141 -55 -56 -54 -57 -71 70 c-135 134 -150 181 -150 485 0 119 3 220 7 224 4
4 28 6 53 4 l45 -3 3 -149z m-554 -445 l164 -233 7 -581 c4 -320 5 -607 3
-637 l-3 -55 -512 -3 c-282 -1 -513 1 -513 5 0 5 23 144 50 311 28 167 50 314
50 328 0 34 -43 60 -75 46 -30 -14 -24 10 -86 -367 -28 -171 -54 -314 -59
-319 -9 -9 -665 -4 -674 5 -7 6 168 944 190 1019 55 192 229 387 411 461 95
38 867 267 876 259 5 -4 82 -112 171 -239z m1186 89 c296 -88 381 -123 475
-197 l60 -48 -235 -6 c-346 -9 -368 -18 -625 -270 -135 -132 -179 -169 -210
-178 -22 -6 -113 -11 -202 -11 l-163 0 0 44 0 43 80 6 c44 4 94 14 112 23 18
9 107 89 197 178 205 202 211 212 211 383 0 93 3 121 13 118 6 -2 136 -40 287
-85z m660 -412 c30 -53 65 -136 75 -180 4 -20 -11 -34 -122 -108 -144 -96
-184 -144 -203 -237 -11 -51 -8 -85 29 -337 23 -155 44 -291 46 -304 5 -22 5
-22 -125 -22 -126 0 -130 1 -134 23 -3 12 -19 153 -36 312 -26 239 -35 293
-50 309 -21 22 -64 16 -79 -12 -7 -14 14 -248 59 -630 0 -1 -231 -1 -512 0
l-513 3 -3 300 c-2 165 0 342 3 393 l7 92 182 0 c256 0 240 -7 456 205 102
100 194 182 220 195 89 46 112 49 397 49 l273 1 30 -52z m185 -764 c41 -220
75 -406 75 -412 0 -9 -44 -12 -160 -12 -157 0 -160 0 -165 23 -11 48 -85 561
-85 590 0 66 35 113 143 187 98 68 102 70 109 48 4 -13 41 -203 83 -424z"/>
<path d="M1957 3762 c-23 -26 -21 -58 5 -76 33 -23 260 -23 282 0 23 22 20 71
-3 84 -11 5 -76 10 -144 10 -107 0 -126 -2 -140 -18z"/>
<path d="M2066 3504 c-10 -9 -16 -33 -16 -59 0 -49 19 -75 55 -75 50 0 72 90
34 136 -15 19 -54 18 -73 -2z"/>
<path d="M3576 1114 c-9 -8 -16 -26 -16 -39 0 -46 23 -55 133 -55 113 0 147
13 147 55 0 42 -34 55 -147 55 -79 0 -105 -3 -117 -16z"/>
<path d="M2830 704 c-83 -36 -110 -89 -110 -215 0 -105 19 -160 68 -196 52
-38 97 -45 287 -41 210 4 239 12 287 87 28 44 30 50 24 126 -7 101 -20 146
-53 186 -51 60 -87 69 -288 68 -138 0 -188 -3 -215 -15z m415 -116 c15 -17 27
-52 36 -98 12 -66 11 -72 -8 -98 -27 -36 -46 -40 -216 -41 -216 -1 -237 12
-237 145 0 59 3 68 30 95 l30 30 171 -3 171 -3 23 -27z"/>
</g>
</svg>
